<svg xmlns="http://www.w3.org/2000/svg" enable-background="new 0 0 512 512" viewBox="0 0 512 512" id="charging"><ellipse cx="256" cy="448" fill="#437CA8" rx="200" ry="40"></ellipse><path fill="#5CA9E6" d="M424,192c0,92.784-168,272-168,272S88,284.784,88,192S163.216,24,256,24S424,99.216,424,192z"></path><circle cx="256" cy="192" r="136" fill="#E6625B"></circle><path fill="#234057" d="M316,256c-11.028,0-20-8.972-20-20v-15.958c0-2.229-1.812-4.042-4.041-4.042H264c-4.418,0-8-3.582-8-8
		s3.582-8,8-8h27.959C303.01,200,312,208.991,312,220.042V236c0,2.206,1.794,4,4,4s4-1.794,4-4v-68c0-4.418,3.582-8,8-8s8,3.582,8,8
		v68C336,247.028,327.028,256,316,256z"></path><path fill="#6BCD67" d="M252,104h-56c-11.046,0-20,8.954-20,20v116h96V124C272,112.954,263.046,104,252,104z"></path><path fill="#50994C" d="M269.875,264h-91.749c-5.592,0-10.125-4.533-10.125-10.125v-11.749c0-5.592,4.533-10.125,10.125-10.125
	h91.749c5.592,0,10.125,4.533,10.125,10.125v11.749C280,259.467,275.467,264,269.875,264z"></path><path fill="#FFDF66" d="M215.995 216c-1.753 0-3.518-.573-4.993-1.753-3.449-2.76-4.009-7.794-1.249-11.245L231.355 176H200c-3.075 0-5.878-1.763-7.21-4.535-1.333-2.771-.958-6.062.963-8.463l32-40c2.761-3.45 7.795-4.009 11.245-1.25 3.449 2.76 4.009 7.794 1.249 11.245L216.645 160H248c3.075 0 5.878 1.763 7.21 4.535 1.333 2.771.958 6.062-.963 8.463l-32 40C220.667 214.973 218.342 216 215.995 216zM312 152c-4.418 0-8-3.582-8-8v-24c0-4.418 3.582-8 8-8s8 3.582 8 8v24C320 148.418 316.418 152 312 152zM344 152c-4.418 0-8-3.582-8-8v-24c0-4.418 3.582-8 8-8s8 3.582 8 8v24C352 148.418 348.418 152 344 152z"></path><path fill="#5CA9E6" d="M335.044,176h-14.088c-9.365,0-16.956-7.592-16.956-16.956V136h48v23.044
	C352,168.408,344.408,176,335.044,176z"></path></svg>