<svg xmlns="http://www.w3.org/2000/svg" viewBox="0 0 64 64" id="electric-vehicle-charging-station"><g data-name="electric vehicle charging station"><path d="M46 53H6a3 3 0 0 0-3 3v2a3 3 0 0 0 3 3h40a3 3 0 0 0 3-3v-2a3 3 0 0 0-3-3Zm1 5a1 1 0 0 1-1 1H6a1 1 0 0 1-1-1v-2a1 1 0 0 1 1-1h40a1 1 0 0 1 1 1Z"></path><rect width="42" height="4" x="5" y="55" opacity=".5" rx="1" ry="1"></rect><path d="M44 19H8a1 1 0 0 0-1 1v34a1 1 0 0 0 1 1h36a1 1 0 0 0 1-1V20a1 1 0 0 0-1-1ZM9 53V21h34v32Z"></path><path d="M42 3H10a3 3 0 0 0-3 3v14a1 1 0 0 0 1 1h36a1 1 0 0 0 1-1V6a3 3 0 0 0-3-3zM9 19V6a1 1 0 0 1 1-1h32a1 1 0 0 1 1 1v13zm17 6a12 12 0 1 0 12 12 12 12 0 0 0-12-12zm0 22a10 10 0 1 1 10-10 10 10 0 0 1-10 10z"></path><path d="M26 27a10 10 0 1 0 10 10 10 10 0 0 0-10-10Zm2 9a1 1 0 0 1 .9.57 1 1 0 0 1-.12 1l-4 5A1 1 0 0 1 24 43a1 1 0 0 1-.62-.22 1 1 0 0 1-.16-1.4l2.7-3.38H24a1 1 0 0 1-.9-.57 1 1 0 0 1 .12-1l4-5a1 1 0 1 1 1.56 1.24L26.08 36Z" opacity=".5"></path><path d="M37 7H15a3 3 0 0 0-3 3v4a3 3 0 0 0 3 3h22a3 3 0 0 0 3-3v-4a3 3 0 0 0-3-3Zm1 7a1 1 0 0 1-1 1H15a1 1 0 0 1-1-1v-4a1 1 0 0 1 1-1h22a1 1 0 0 1 1 1Z"></path><path d="M37 9H15a1 1 0 0 0-1 1v4a1 1 0 0 0 1 1h22a1 1 0 0 0 1-1v-4a1 1 0 0 0-1-1Zm-19 4a1 1 0 1 1 0-2 1 1 0 0 1 0 2Zm8 0a1 1 0 1 1 0-2 1 1 0 0 1 0 2Zm8 0a1 1 0 1 1 0-2 1 1 0 0 1 0 2Z" opacity=".5"></path><path d="M46 24.11h-2a1 1 0 0 0-1 1v7.78a1 1 0 0 0 1 1h2a3 3 0 0 0 3-3v-3.78a3 3 0 0 0-3-3Zm1 6.78a1 1 0 0 1-1 1h-1v-5.78h1a1 1 0 0 1 1 1Z"></path><path d="M47 27.11v3.78a1 1 0 0 1-1 1h-1v-5.78h1a1 1 0 0 1 1 1Z" opacity=".5"></path><path d="M54.5 42a3.5 3.5 0 0 1-3.5-3.5V32a2 2 0 0 0-2-2h-1a1 1 0 0 1 0-2h1a4 4 0 0 1 4 4v6.5a1.5 1.5 0 0 0 3 0V21a1 1 0 0 1 2 0v17.5a3.5 3.5 0 0 1-3.5 3.5Z"></path><path d="M60 15h-6a1 1 0 0 0-1 1v3a3 3 0 0 0 3 3h2a3 3 0 0 0 3-3v-3a1 1 0 0 0-1-1Zm-1 4a1 1 0 0 1-1 1h-2a1 1 0 0 1-1-1v-2h4Z"></path><path d="M59 17v2a1 1 0 0 1-1 1h-2a1 1 0 0 1-1-1v-2Z" opacity=".5"></path><path fill="none" stroke="#000" stroke-linecap="round" stroke-linejoin="round" stroke-width="2" d="M59 16v-4"></path><path d="M55 17a1 1 0 0 1-1-1v-4a1 1 0 0 1 2 0v4a1 1 0 0 1-1 1Z"></path></g></svg>