<svg xmlns="http://www.w3.org/2000/svg" fill-rule="evenodd" stroke-linejoin="round" stroke-miterlimit="2" clip-rule="evenodd" viewBox="0 0 48 48" id="station-charging"><path d="M41 2h-2a3 3 0 0 0-3 3v4a3 3 0 0 0 3 3h2a3 3 0 0 0 3-3V5a3 3 0 0 0-3-3Zm-2 2h2a1 1 0 0 1 1 1v4a1 1 0 0 1-1 1h-2a1 1 0 0 1-1-1V5a1 1 0 0 1 1-1Z"></path><path d="M43 10h2a1 1 0 0 0 0-2h-2a1 1 0 0 0 0 2ZM43 6h2a1 1 0 0 0 0-2h-2a1 1 0 0 0 0 2ZM27 26h-3a3 3 0 0 0-3 3v10a3 3 0 0 0 3 3h21a1 1 0 0 0 0-2H24a1 1 0 0 1-1-1V29a1 1 0 0 1 1-1h3a1 1 0 0 0 0-2Z"></path><path d="m24.965 27.263 2.196-8.052A2.999 2.999 0 0 1 30.055 17H45a1 1 0 0 0 0-2H30.055a5 5 0 0 0-4.824 3.684l-2.196 8.053a1 1 0 0 0 1.93.526ZM26 34a.997.997 0 0 1-1 1h-3a1 1 0 0 0 0 2h3c.796 0 1.559-.316 2.121-.879a2.996 2.996 0 0 0 0-4.242A2.996 2.996 0 0 0 25 31h-3a1 1 0 0 0 0 2h3a.997.997 0 0 1 1 1ZM24 41v2a3 3 0 0 0 3 3h3a3 3 0 0 0 3-3v-2a1 1 0 0 0-2 0v2a1 1 0 0 1-1 1h-3a1 1 0 0 1-1-1v-2a1 1 0 0 0-2 0Z"></path><path d="M45 26H27a1 1 0 0 0 0 2h18a1 1 0 0 0 0-2ZM20 43a3 3 0 0 0-3-3H5a3 3 0 0 0-3 3v2a1 1 0 0 0 1 1h16a1 1 0 0 0 1-1v-2Zm-2 0v1H4v-1a1 1 0 0 1 1-1h12a1 1 0 0 1 1 1Z"></path><path d="M18 15a3 3 0 0 0-3-3H7a3 3 0 0 0-3 3v26a1 1 0 0 0 1 1h12a1 1 0 0 0 1-1V15Zm-2 0v25H6V15a1 1 0 0 1 1-1h8a1 1 0 0 1 1 1Z"></path><path d="m10.668 26.445-2 3A1 1 0 0 0 9.5 31h1.131l-.963 1.445a1 1 0 0 0 1.664 1.11l2-3A1 1 0 0 0 12.5 29h-1.131l.963-1.445a1 1 0 0 0-1.664-1.11ZM37 6H13a3 3 0 0 0-3 3v4a1 1 0 0 0 2 0V9a1 1 0 0 1 1-1h24a1 1 0 0 0 0-2Z"></path></svg>